<svg width="22" height="12" viewBox="0 0 22 12" fill="none" xmlns="http://www.w3.org/2000/svg">
<g clip-path="url(#clip0_3702_29573)">
<path d="M20.4509 2.11765H1.39208C1.11126 2.11765 0.841942 2.00609 0.643374 1.80753C0.444806 1.60896 0.333252 1.33964 0.333252 1.05882C0.333252 0.778006 0.444806 0.50869 0.643374 0.310122C0.841942 0.111554 1.11126 0 1.39208 0H20.4509C20.7317 0 21.001 0.111554 21.1996 0.310122C21.3982 0.50869 21.5097 0.778006 21.5097 1.05882C21.5097 1.33964 21.3982 1.60896 21.1996 1.80753C21.001 2.00609 20.7317 2.11765 20.4509 2.11765Z" fill="#0F004A"/>
<path d="M16.9214 7.05905H4.92137C4.64055 7.05905 4.37124 6.9475 4.17267 6.74893C3.9741 6.55036 3.86255 6.28105 3.86255 6.00023C3.86255 5.71941 3.9741 5.4501 4.17267 5.25153C4.37124 5.05296 4.64055 4.94141 4.92137 4.94141H16.9214C17.2022 4.94141 17.4715 5.05296 17.6701 5.25153C17.8686 5.4501 17.9802 5.71941 17.9802 6.00023C17.9802 6.28105 17.8686 6.55036 17.6701 6.74893C17.4715 6.9475 17.2022 7.05905 16.9214 7.05905Z" fill="#0F004A"/>
<path d="M12.6861 12H9.15672C8.87591 12 8.60659 11.8884 8.40802 11.6898C8.20945 11.4913 8.0979 11.222 8.0979 10.9411C8.0979 10.6603 8.20945 10.391 8.40802 10.1924C8.60659 9.99388 8.87591 9.88232 9.15672 9.88232H12.6861C12.967 9.88232 13.2363 9.99388 13.4348 10.1924C13.6334 10.391 13.745 10.6603 13.745 10.9411C13.745 11.222 13.6334 11.4913 13.4348 11.6898C13.2363 11.8884 12.967 12 12.6861 12Z" fill="#0F004A"/>
</g>
<defs>
<clipPath id="clip0_3702_29573">
<rect width="21.1765" height="12" fill="white" transform="translate(0.333252)"/>
</clipPath>
</defs>
</svg>
